<svg id="Capa_1" enable-background="new 0 0 512 512" height="512" viewBox="0 0 512 512" width="512" xmlns="http://www.w3.org/2000/svg"><g><g><path d="m256 512-74.856-75.281h-105.863v-105.863l-75.281-74.856 75.281-74.856v-105.863h105.862l74.857-75.281 74.856 75.281h105.862v105.862l75.282 74.857-75.281 74.856v105.862h-105.863zm-150.719-105.281h88.289l62.43 62.43 62.43-62.43h88.289v-88.289l62.43-62.43-62.43-62.43v-88.289h-88.289l-62.43-62.429-62.43 62.43h-88.289v88.289l-62.429 62.429 62.43 62.43v88.289z"/></g><g><path d="m256 387.425c-72.468 0-131.426-58.957-131.426-131.425s58.958-131.425 131.426-131.425 131.426 58.957 131.426 131.425-58.958 131.425-131.426 131.425zm0-232.85c-55.926 0-101.426 45.499-101.426 101.425s45.5 101.425 101.426 101.425 101.426-45.499 101.426-101.425-45.5-101.425-101.426-101.425z"/></g></g></svg>