<svg height="512pt" viewBox="0 -31 512 512" width="512pt" xmlns="http://www.w3.org/2000/svg"><path d="m110.332031 266.167969c0-30.421875-24.746093-55.167969-55.167969-55.167969h-40.164062c-8.285156 0-15 6.714844-15 15v80.335938c0 8.28125 6.714844 15 15 15h40.167969c30.417969 0 55.164062-24.75 55.164062-55.167969zm0 0"/><path d="m497 211h-40.167969c-30.417969 0-55.167969 24.75-55.167969 55.167969s24.75 55.167969 55.167969 55.167969h40.167969c8.285156 0 15-6.71875 15-15v-80.332032c0-8.285156-6.714844-15.003906-15-15.003906zm0 0"/><path d="m368.46875 178.867188c49.3125 0 89.429688-40.121094 89.429688-89.433594 0-49.316406-40.117188-89.433594-89.429688-89.433594-49.316406 0-89.4375 40.121094-89.4375 89.433594s40.121094 89.433594 89.4375 89.433594zm0 0"/><path d="m249.03125 89.433594c0-49.3125-40.117188-89.433594-89.429688-89.433594-49.316406 0-89.433593 40.121094-89.433593 89.433594s40.117187 89.433594 89.433593 89.433594c49.3125 0 89.429688-40.121094 89.429688-89.433594zm0 0"/><path d="m211 306.335938c0-52.359376 25.691406-98.824219 65.125-127.46875-42.609375 0-91.746094 0-116.523438 0-10.023437 0-16.066406 0-16.070312 0-18.203125 0-35.507812 3.824218-51.171875 10.699218 28.375 13.832032 47.972656 42.96875 47.972656 76.601563 0 46.960937-38.203125 85.167969-85.167969 85.167969h-39.097656v83.53125c0 8.285156 6.714844 15 15 15h49.261719v-65.332032c0-8.28125 6.722656-15 15-15 8.292969 0 15 6.71875 15 15v65.332032h103.25c-1.664063-4.695313-2.578125-9.742188-2.578125-15zm0 0"/><path d="m371.667969 266.167969c0-33.632813 19.597656-62.769531 47.972656-76.601563-15.664063-6.875-32.96875-10.699218-51.171875-10.699218-70.398438 0-127.46875 57.070312-127.46875 127.46875v128.53125c0 8.285156 6.714844 15 15 15h145.671875v-65.332032c0-8.28125 6.707031-15 15-15 8.277344 0 15 6.71875 15 15v65.332032h49.261719c8.285156 0 15-6.714844 15-15v-83.53125h-39.101563c-46.960937 0-85.164062-38.207032-85.164062-85.167969zm0 0"/></svg>